<svg width="1440" height="1428" viewBox="0 0 1440 1428" fill="none" xmlns="http://www.w3.org/2000/svg">
<g opacity="0.6" filter="url(#filter0_f_20_3)">
<ellipse cx="560.713" cy="479.843" rx="578.5" ry="386" fill="#5E19F0"/>
</g>
<g opacity="0.6" filter="url(#filter1_f_20_3)">
<circle cx="113.212" cy="629.843" r="386" fill="#3719F0"/>
</g>
<g filter="url(#filter2_f_20_3)">
<path d="M358.554 421.93C169.918 420.402 -79.0506 499.83 -46.9749 962.651C478.965 993.709 1538.79 1055.22 1570.56 1052.77C1610.27 1049.72 1914.99 641.12 1926.45 629.664C1937.9 618.208 1989.07 514.341 1660.68 247.035C1332.28 -20.2706 1055.06 185.364 862.602 320.353C670.147 455.343 547.19 423.457 358.554 421.93Z" fill="#6849E1"/>
</g>
<mask id="mask0_20_3" style="mask-type:alpha" maskUnits="userSpaceOnUse" x="797" y="101" width="854" height="740">
<ellipse cx="1224.02" cy="470.976" rx="484.544" ry="289.781" transform="rotate(-36.2854 1224.02 470.976)" fill="url(#paint0_radial_20_3)"/>
</mask>
<g mask="url(#mask0_20_3)">
<path d="M799.698 730.083C739.25 753.284 725.969 777.051 690.212 832.753L1272.05 1048.92C1420.31 823.353 1677.26 391.405 1575.23 350.57C1468.46 307.841 1305.7 325.638 1205.88 374.55C1106.06 423.463 1025.62 586.764 987.823 644.883C952.81 698.728 860.146 706.882 799.698 730.083Z" fill="#7C7AEA"/>
<g filter="url(#filter3_f_20_3)">
<path d="M799.698 729.083C739.25 752.284 725.969 776.051 690.212 831.753L1272.05 1047.92C1420.31 822.353 1640.75 324.678 1538.71 283.843C1458.03 251.552 1311.38 329.166 1236.21 373.764C1211.91 388.182 1229.11 404.522 1213.88 405.55C1102.97 413.037 1025.62 585.764 987.823 643.883C952.81 697.728 860.146 705.882 799.698 729.083Z" fill="#7C7AEA"/>
</g>
<g filter="url(#filter4_f_20_3)">
<path d="M783.698 722.083C723.25 745.284 709.969 769.051 674.212 824.753L1272.05 1048.92C1420.31 823.353 1549.27 367.405 1447.23 326.57C1351.52 288.266 1296.1 333.744 1218.71 378.189C1209.77 383.324 1224.22 385.485 1213.88 390.55C1114.06 439.463 1009.62 578.764 971.823 636.883C936.81 690.728 844.146 698.882 783.698 722.083Z" fill="#7C7AEA"/>
</g>
<g filter="url(#filter5_f_20_3)">
<path d="M767.698 714.083C707.25 737.284 693.969 761.051 658.212 816.753L1272.05 1048.92C1420.31 823.353 1701.26 311.405 1599.23 270.57C1513.11 236.104 1360.76 319.838 1266.21 356.749C1243.54 365.599 1230.18 383.091 1210.88 392.55C1111.06 441.463 993.615 570.764 955.823 628.883C920.81 682.728 828.146 690.882 767.698 714.083Z" fill="#7C7AEA"/>
</g>
<g filter="url(#filter6_f_20_3)">
<path d="M716.698 692.233C656.25 715.434 642.969 739.201 607.212 794.903L1237.05 1043.07C1385.31 817.503 1514.26 361.556 1412.23 320.721C1333.1 289.051 1272.92 354.215 1235.21 377.643C1222.04 385.824 1259.81 399.843 1231.21 399.843C1120.71 399.843 1141.6 516.152 959.712 592.843C900.529 617.796 777.146 669.032 716.698 692.233Z" fill="#7C7AEA"/>
</g>
</g>
<g opacity="0.6" filter="url(#filter7_f_20_3)">
<circle cx="1338.71" cy="615.343" r="164.5" fill="#B819F0"/>
</g>
<g opacity="0.3" filter="url(#filter8_f_20_3)">
<ellipse cx="611.713" cy="619.343" rx="368.5" ry="164.5" fill="black"/>
</g>
<g opacity="0.6" filter="url(#filter9_f_20_3)">
<ellipse cx="956.019" cy="571.924" rx="164.5" ry="48.7174" transform="rotate(-41.2443 956.019 571.924)" fill="#28009B"/>
</g>
<mask id="mask1_20_3" style="mask-type:alpha" maskUnits="userSpaceOnUse" x="-644" y="172" width="1472" height="975">
<path d="M-430.106 1146.53C-485.068 829.338 -639.775 352.131 -643.787 336.557L827.89 172.689L757.864 938.672L-430.106 1146.53Z" fill="url(#paint1_linear_20_3)"/>
</mask>
<g mask="url(#mask1_20_3)">
<path d="M9.27657 399.544C143.264 376.1 269.305 432.906 281.307 501.504C293.31 570.101 254.822 669.614 111.065 694.767C39.8267 707.231 -38.6469 768.222 -129.261 748.87C-221.504 729.171 -218.282 632.184 -224.337 597.58C-236.34 528.982 -124.711 422.987 9.27657 399.544Z" fill="#7371FF"/>
<g filter="url(#filter10_f_20_3)">
<path d="M8.69967 405.7C152.398 380.558 266.747 428.334 277.064 487.299C287.381 546.263 246.704 633.13 103.005 658.273C31.7959 670.732 -47.5008 726.81 -137.241 712.249C-228.594 697.428 -223.082 613.581 -228.286 583.836C-238.603 524.871 -134.999 430.843 8.69967 405.7Z" fill="#7371FF"/>
</g>
<g filter="url(#filter11_f_20_3)">
<path d="M13.0529 404.939C174.111 376.759 303.563 437.678 316.283 510.375C329.002 583.071 284.929 689.103 123.871 717.283C44.0587 731.248 -42.8295 805.462 -143.987 785.852C-246.962 765.889 -243.436 656.752 -249.853 620.08C-262.572 547.384 -148.005 433.119 13.0529 404.939Z" fill="#7371FF"/>
</g>
<g filter="url(#filter12_f_20_3)">
<path d="M33.147 410.297C235.115 393.336 416.324 458.804 431.21 543.885C446.097 628.966 361.264 738.603 168.107 772.399C72.3885 789.147 -34.4345 903.406 -155.569 880.935C-278.88 858.06 -272.861 737.414 -280.37 694.495C-295.257 609.413 -200.822 429.944 33.147 410.297Z" fill="#7371FF"/>
</g>
<g filter="url(#filter13_f_20_3)">
<path d="M106.167 433.007C314.146 396.617 512.374 474.909 526.929 558.094C541.483 641.278 448.547 750.219 240.567 786.609C137.503 804.642 17.9192 858.284 -111.777 838.284C-243.804 817.925 -235.311 699.513 -242.653 657.55C-257.208 574.365 -101.812 469.397 106.167 433.007Z" fill="#7371FF"/>
</g>
<g filter="url(#filter14_f_20_3)">
<path d="M192.925 452.048C407.852 414.443 612.499 494.187 627.385 579.268C642.272 664.35 546.063 775.976 331.136 813.582C224.629 832.217 100.991 887.314 -32.9616 867.086C-169.32 846.494 -160.334 725.329 -167.843 682.41C-182.73 597.328 -22.0025 489.654 192.925 452.048Z" fill="#7371FF"/>
</g>
<g filter="url(#filter15_f_20_3)">
<path d="M28.904 466.803C216.966 433.898 398.483 517.689 413.37 602.77C428.256 687.852 346.086 797.022 158.024 829.927C64.8305 846.233 -44.3641 888.663 -162.499 865.667C-282.756 842.258 -277.431 721.734 -284.941 678.814C-299.827 593.733 -159.157 499.707 28.904 466.803Z" fill="#7371FF"/>
</g>
</g>
<defs>
<filter id="filter0_f_20_3" x="-429.787" y="-318.157" width="1981" height="1596" filterUnits="userSpaceOnUse" color-interpolation-filters="sRGB">
<feFlood flood-opacity="0" result="BackgroundImageFix"/>
<feBlend mode="normal" in="SourceGraphic" in2="BackgroundImageFix" result="shape"/>
<feGaussianBlur stdDeviation="206" result="effect1_foregroundBlur_20_3"/>
</filter>
<filter id="filter1_f_20_3" x="-684.788" y="-168.157" width="1596" height="1596" filterUnits="userSpaceOnUse" color-interpolation-filters="sRGB">
<feFlood flood-opacity="0" result="BackgroundImageFix"/>
<feBlend mode="normal" in="SourceGraphic" in2="BackgroundImageFix" result="shape"/>
<feGaussianBlur stdDeviation="206" result="effect1_foregroundBlur_20_3"/>
</filter>
<filter id="filter2_f_20_3" x="-205.787" y="-39.158" width="2298" height="1248" filterUnits="userSpaceOnUse" color-interpolation-filters="sRGB">
<feFlood flood-opacity="0" result="BackgroundImageFix"/>
<feBlend mode="normal" in="SourceGraphic" in2="BackgroundImageFix" result="shape"/>
<feGaussianBlur stdDeviation="78" result="effect1_foregroundBlur_20_3"/>
</filter>
<filter id="filter3_f_20_3" x="670.212" y="256.193" width="914.56" height="811.722" filterUnits="userSpaceOnUse" color-interpolation-filters="sRGB">
<feFlood flood-opacity="0" result="BackgroundImageFix"/>
<feBlend mode="normal" in="SourceGraphic" in2="BackgroundImageFix" result="shape"/>
<feGaussianBlur stdDeviation="10" result="effect1_foregroundBlur_20_3"/>
</filter>
<filter id="filter4_f_20_3" x="646.212" y="284.191" width="865.541" height="792.724" filterUnits="userSpaceOnUse" color-interpolation-filters="sRGB">
<feFlood flood-opacity="0" result="BackgroundImageFix"/>
<feBlend mode="normal" in="SourceGraphic" in2="BackgroundImageFix" result="shape"/>
<feGaussianBlur stdDeviation="14" result="effect1_foregroundBlur_20_3"/>
</filter>
<filter id="filter5_f_20_3" x="622.212" y="226.422" width="1034.83" height="858.493" filterUnits="userSpaceOnUse" color-interpolation-filters="sRGB">
<feFlood flood-opacity="0" result="BackgroundImageFix"/>
<feBlend mode="normal" in="SourceGraphic" in2="BackgroundImageFix" result="shape"/>
<feGaussianBlur stdDeviation="18" result="effect1_foregroundBlur_20_3"/>
</filter>
<filter id="filter6_f_20_3" x="555.212" y="260.206" width="945.541" height="834.86" filterUnits="userSpaceOnUse" color-interpolation-filters="sRGB">
<feFlood flood-opacity="0" result="BackgroundImageFix"/>
<feBlend mode="normal" in="SourceGraphic" in2="BackgroundImageFix" result="shape"/>
<feGaussianBlur stdDeviation="26" result="effect1_foregroundBlur_20_3"/>
</filter>
<filter id="filter7_f_20_3" x="962.212" y="238.843" width="753" height="753" filterUnits="userSpaceOnUse" color-interpolation-filters="sRGB">
<feFlood flood-opacity="0" result="BackgroundImageFix"/>
<feBlend mode="normal" in="SourceGraphic" in2="BackgroundImageFix" result="shape"/>
<feGaussianBlur stdDeviation="106" result="effect1_foregroundBlur_20_3"/>
</filter>
<filter id="filter8_f_20_3" x="31.2125" y="242.843" width="1161" height="753" filterUnits="userSpaceOnUse" color-interpolation-filters="sRGB">
<feFlood flood-opacity="0" result="BackgroundImageFix"/>
<feBlend mode="normal" in="SourceGraphic" in2="BackgroundImageFix" result="shape"/>
<feGaussianBlur stdDeviation="106" result="effect1_foregroundBlur_20_3"/>
</filter>
<filter id="filter9_f_20_3" x="616.197" y="245.423" width="679.643" height="653.001" filterUnits="userSpaceOnUse" color-interpolation-filters="sRGB">
<feFlood flood-opacity="0" result="BackgroundImageFix"/>
<feBlend mode="normal" in="SourceGraphic" in2="BackgroundImageFix" result="shape"/>
<feGaussianBlur stdDeviation="106" result="effect1_foregroundBlur_20_3"/>
</filter>
<filter id="filter10_f_20_3" x="-236.534" y="391.301" width="522.653" height="330.883" filterUnits="userSpaceOnUse" color-interpolation-filters="sRGB">
<feFlood flood-opacity="0" result="BackgroundImageFix"/>
<feBlend mode="normal" in="SourceGraphic" in2="BackgroundImageFix" result="shape"/>
<feGaussianBlur stdDeviation="3.76999" result="effect1_foregroundBlur_20_3"/>
</filter>
<filter id="filter11_f_20_3" x="-277.206" y="371.522" width="621.938" height="443.996" filterUnits="userSpaceOnUse" color-interpolation-filters="sRGB">
<feFlood flood-opacity="0" result="BackgroundImageFix"/>
<feBlend mode="normal" in="SourceGraphic" in2="BackgroundImageFix" result="shape"/>
<feGaussianBlur stdDeviation="13.195" result="effect1_foregroundBlur_20_3"/>
</filter>
<filter id="filter12_f_20_3" x="-319.581" y="369.907" width="790.154" height="551.644" filterUnits="userSpaceOnUse" color-interpolation-filters="sRGB">
<feFlood flood-opacity="0" result="BackgroundImageFix"/>
<feBlend mode="normal" in="SourceGraphic" in2="BackgroundImageFix" result="shape"/>
<feGaussianBlur stdDeviation="18.8499" result="effect1_foregroundBlur_20_3"/>
</filter>
<filter id="filter13_f_20_3" x="-345.387" y="322.06" width="975.581" height="622.413" filterUnits="userSpaceOnUse" color-interpolation-filters="sRGB">
<feFlood flood-opacity="0" result="BackgroundImageFix"/>
<feBlend mode="normal" in="SourceGraphic" in2="BackgroundImageFix" result="shape"/>
<feGaussianBlur stdDeviation="50.8948" result="effect1_foregroundBlur_20_3"/>
</filter>
<filter id="filter14_f_20_3" x="-421.388" y="189.897" width="1302.86" height="934.174" filterUnits="userSpaceOnUse" color-interpolation-filters="sRGB">
<feFlood flood-opacity="0" result="BackgroundImageFix"/>
<feBlend mode="normal" in="SourceGraphic" in2="BackgroundImageFix" result="shape"/>
<feGaussianBlur stdDeviation="126.295" result="effect1_foregroundBlur_20_3"/>
</filter>
<filter id="filter15_f_20_3" x="-402.891" y="342.611" width="934.839" height="646.608" filterUnits="userSpaceOnUse" color-interpolation-filters="sRGB">
<feFlood flood-opacity="0" result="BackgroundImageFix"/>
<feBlend mode="normal" in="SourceGraphic" in2="BackgroundImageFix" result="shape"/>
<feGaussianBlur stdDeviation="58.4348" result="effect1_foregroundBlur_20_3"/>
</filter>
<radialGradient id="paint0_radial_20_3" cx="0" cy="0" r="1" gradientUnits="userSpaceOnUse" gradientTransform="translate(1307.07 424.573) rotate(103.875) scale(346.288 557.278)">
<stop offset="0.120131" stop-color="#C4C4C4"/>
<stop offset="0.692585" stop-color="#C4C4C4" stop-opacity="0"/>
</radialGradient>
<linearGradient id="paint1_linear_20_3" x1="-41.994" y1="439.033" x2="65.7482" y2="958.497" gradientUnits="userSpaceOnUse">
<stop stop-color="#C4C4C4"/>
<stop offset="1" stop-color="#C4C4C4" stop-opacity="0"/>
</linearGradient>
</defs>
</svg>
